<svg xmlns="http://www.w3.org/2000/svg" width="980" height="458" viewBox="0 0 980 458" role="img" aria-label="Baseline vs augmented avg@16 by domain"><style>.title{font:700 24px 'Avenir Next','Segoe UI',sans-serif;fill:#1f2430;letter-spacing:-0.03em;}.subtitle{font:13px 'Avenir Next','Segoe UI',sans-serif;fill:#5e6573;}.label{font:600 14px 'Avenir Next','Segoe UI',sans-serif;fill:#1f2430;}.legend,.value,.axis-label{font:12px 'IBM Plex Mono','SFMono-Regular',monospace;fill:#1f2430;}.bar-track{fill:rgba(48,58,79,0.08);}.bar-count{fill:#b45309;}.bar-baseline{fill:#0f766e;}.bar-augmented{fill:#18794e;}.bar-positive{fill:#18794e;}.bar-negative{fill:#b42318;}.axis-line{stroke:rgba(48,58,79,0.28);stroke-width:1.5;}</style><text x="190" y="36" class="title">Baseline Vs Augmented Avg@16</text><text x="190" y="56" class="subtitle">Mean pass rate on completed problems</text><rect x="190" y="18" width="14" height="14" class="bar-baseline" rx="4"></rect><text x="210" y="30" class="legend">Baseline</text><rect x="286" y="18" width="14" height="14" class="bar-augmented" rx="4"></rect><text x="306" y="30" class="legend">Augmented</text><text x="176" y="106" class="label" text-anchor="end">Math</text><rect x="190" y="88" width="700" height="14" class="bar-track" rx="7"></rect><rect x="190" y="112" width="700" height="14" class="bar-track" rx="7"></rect><rect x="190" y="88" width="253.39" height="14" class="bar-baseline" rx="7"></rect><rect x="190" y="112" width="343.06" height="14" class="bar-augmented" rx="7"></rect><text x="451.39" y="100" class="value">0.362</text><text x="541.06" y="124" class="value">0.490</text><text x="176" y="162" class="label" text-anchor="end">Coding</text><rect x="190" y="144" width="700" height="14" class="bar-track" rx="7"></rect><rect x="190" y="168" width="700" height="14" class="bar-track" rx="7"></rect><rect x="190" y="144" width="210.02" height="14" class="bar-baseline" rx="7"></rect><rect x="190" y="168" width="285.98" height="14" class="bar-augmented" rx="7"></rect><text x="408.02" y="156" class="value">0.300</text><text x="483.98" y="180" class="value">0.409</text><text x="176" y="218" class="label" text-anchor="end">Science</text><rect x="190" y="200" width="700" height="14" class="bar-track" rx="7"></rect><rect x="190" y="224" width="700" height="14" class="bar-track" rx="7"></rect><rect x="190" y="200" width="538.19" height="14" class="bar-baseline" rx="7"></rect><rect x="190" y="224" width="611.15" height="14" class="bar-augmented" rx="7"></rect><text x="736.19" y="212" class="value">0.769</text><text x="809.15" y="236" class="value">0.873</text><text x="176" y="274" class="label" text-anchor="end">Logic</text><rect x="190" y="256" width="700" height="14" class="bar-track" rx="7"></rect><rect x="190" y="280" width="700" height="14" class="bar-track" rx="7"></rect><rect x="190" y="256" width="227.93" height="14" class="bar-baseline" rx="7"></rect><rect x="190" y="280" width="327.25" height="14" class="bar-augmented" rx="7"></rect><text x="425.93" y="268" class="value">0.326</text><text x="525.25" y="292" class="value">0.468</text><text x="176" y="330" class="label" text-anchor="end">Simulation</text><rect x="190" y="312" width="700" height="14" class="bar-track" rx="7"></rect><rect x="190" y="336" width="700" height="14" class="bar-track" rx="7"></rect><rect x="190" y="312" width="435.73" height="14" class="bar-baseline" rx="7"></rect><rect x="190" y="336" width="503.38" height="14" class="bar-augmented" rx="7"></rect><text x="633.73" y="324" class="value">0.622</text><text x="701.38" y="348" class="value">0.719</text><text x="176" y="386" class="label" text-anchor="end">Table</text><rect x="190" y="368" width="700" height="14" class="bar-track" rx="7"></rect><rect x="190" y="392" width="700" height="14" class="bar-track" rx="7"></rect><rect x="190" y="368" width="328.38" height="14" class="bar-baseline" rx="7"></rect><rect x="190" y="392" width="391.68" height="14" class="bar-augmented" rx="7"></rect><text x="526.38" y="380" class="value">0.469</text><text x="589.68" y="404" class="value">0.560</text></svg>