<svg xmlns="http://www.w3.org/2000/svg" width="980" height="394" viewBox="0 0 980 394" role="img" aria-label="Completed problems by domain"><style>.title{font:700 24px 'Avenir Next','Segoe UI',sans-serif;fill:#1f2430;letter-spacing:-0.03em;}.subtitle{font:13px 'Avenir Next','Segoe UI',sans-serif;fill:#5e6573;}.label{font:600 14px 'Avenir Next','Segoe UI',sans-serif;fill:#1f2430;}.legend,.value,.axis-label{font:12px 'IBM Plex Mono','SFMono-Regular',monospace;fill:#1f2430;}.bar-track{fill:rgba(48,58,79,0.08);}.bar-count{fill:#b45309;}.bar-baseline{fill:#0f766e;}.bar-augmented{fill:#18794e;}.bar-positive{fill:#18794e;}.bar-negative{fill:#b42318;}.axis-line{stroke:rgba(48,58,79,0.28);stroke-width:1.5;}</style><text x="190" y="36" class="title">Completed Problems By Domain</text><text x="190" y="56" class="subtitle">Completed subset only</text><text x="176" y="92" class="label" text-anchor="end">Math</text><rect x="190" y="78" width="710" height="20" class="bar-track" rx="10"></rect><rect x="190" y="78" width="710.00" height="20" class="bar-count" rx="10"></rect><text x="908.00" y="92" class="value">53,608</text><text x="176" y="140" class="label" text-anchor="end">Coding</text><rect x="190" y="126" width="710" height="20" class="bar-track" rx="10"></rect><rect x="190" y="126" width="239.51" height="20" class="bar-count" rx="10"></rect><text x="437.51" y="140" class="value">18,084</text><text x="176" y="188" class="label" text-anchor="end">Science</text><rect x="190" y="174" width="710" height="20" class="bar-track" rx="10"></rect><rect x="190" y="174" width="15.42" height="20" class="bar-count" rx="10"></rect><text x="213.42" y="188" class="value">1,164</text><text x="176" y="236" class="label" text-anchor="end">Logic</text><rect x="190" y="222" width="710" height="20" class="bar-track" rx="10"></rect><rect x="190" y="222" width="83.52" height="20" class="bar-count" rx="10"></rect><text x="281.52" y="236" class="value">6,306</text><text x="176" y="284" class="label" text-anchor="end">Simulation</text><rect x="190" y="270" width="710" height="20" class="bar-track" rx="10"></rect><rect x="190" y="270" width="38.04" height="20" class="bar-count" rx="10"></rect><text x="236.04" y="284" class="value">2,872</text><text x="176" y="332" class="label" text-anchor="end">Table</text><rect x="190" y="318" width="710" height="20" class="bar-track" rx="10"></rect><rect x="190" y="318" width="11.18" height="20" class="bar-count" rx="10"></rect><text x="209.18" y="332" class="value">844</text></svg>